<mxfile host="app.diagrams.net" agent="Mozilla/5.0 (X11; Linux x86_64; rv:137.0) Gecko/20100101 Firefox/137.0" version="28.0.7">
  <diagram name="Page-1" id="BDQL3WeIkQ-cbjtuE3hc">
    <mxGraphModel dx="689" dy="385" grid="1" gridSize="10" guides="1" tooltips="1" connect="1" arrows="1" fold="1" page="1" pageScale="1" pageWidth="850" pageHeight="1100" math="0" shadow="0">
      <root>
        <mxCell id="0" />
        <mxCell id="1" parent="0" />
        <mxCell id="4S4u7Q99ARSWGso0Dd4t-3" style="edgeStyle=orthogonalEdgeStyle;rounded=0;orthogonalLoop=1;jettySize=auto;html=1;exitX=0.5;exitY=0;exitDx=0;exitDy=0;entryX=0.5;entryY=1;entryDx=0;entryDy=0;startArrow=classic;startFill=1;" edge="1" parent="1" source="mkDRwggV2IfQ0x30Mn7R-49" target="mkDRwggV2IfQ0x30Mn7R-8">
          <mxGeometry relative="1" as="geometry" />
        </mxCell>
        <mxCell id="mkDRwggV2IfQ0x30Mn7R-49" value="" style="rounded=1;whiteSpace=wrap;html=1;fillColor=#dae8fc;strokeColor=#6c8ebf;" parent="1" vertex="1">
          <mxGeometry x="470" y="240" width="90" height="120" as="geometry" />
        </mxCell>
        <mxCell id="mkDRwggV2IfQ0x30Mn7R-61" value="" style="rounded=1;whiteSpace=wrap;html=1;fillColor=#d5e8d4;strokeColor=#82b366;" parent="1" vertex="1">
          <mxGeometry x="580" y="190" width="140" height="220" as="geometry" />
        </mxCell>
        <mxCell id="mkDRwggV2IfQ0x30Mn7R-3" value="" style="rounded=1;whiteSpace=wrap;html=1;fillColor=none;" parent="1" vertex="1">
          <mxGeometry x="300" y="421.5" width="420" height="71" as="geometry" />
        </mxCell>
        <mxCell id="mkDRwggV2IfQ0x30Mn7R-4" value="" style="endArrow=none;dashed=1;html=1;rounded=0;" parent="1" edge="1">
          <mxGeometry width="50" height="50" relative="1" as="geometry">
            <mxPoint x="460" y="500" as="sourcePoint" />
            <mxPoint x="460" y="180" as="targetPoint" />
          </mxGeometry>
        </mxCell>
        <mxCell id="mkDRwggV2IfQ0x30Mn7R-5" style="edgeStyle=orthogonalEdgeStyle;rounded=0;orthogonalLoop=1;jettySize=auto;html=1;exitX=1;exitY=0.5;exitDx=0;exitDy=0;startArrow=classic;startFill=1;" parent="1" source="mkDRwggV2IfQ0x30Mn7R-6" edge="1">
          <mxGeometry relative="1" as="geometry">
            <mxPoint x="750" y="472.5" as="targetPoint" />
            <Array as="points">
              <mxPoint x="640" y="472" />
            </Array>
          </mxGeometry>
        </mxCell>
        <mxCell id="4S4u7Q99ARSWGso0Dd4t-2" style="edgeStyle=orthogonalEdgeStyle;rounded=0;orthogonalLoop=1;jettySize=auto;html=1;exitX=0.5;exitY=0;exitDx=0;exitDy=0;entryX=0.5;entryY=1;entryDx=0;entryDy=0;startArrow=classic;startFill=1;" edge="1" parent="1" source="mkDRwggV2IfQ0x30Mn7R-6" target="8hytbF6t35E1Ke5NVrlU-3">
          <mxGeometry relative="1" as="geometry" />
        </mxCell>
        <mxCell id="mkDRwggV2IfQ0x30Mn7R-6" value="&lt;div&gt;Network&lt;/div&gt;&lt;div&gt;device&lt;/div&gt;" style="rounded=1;whiteSpace=wrap;html=1;fillColor=none;" parent="1" vertex="1">
          <mxGeometry x="490" y="457" width="50" height="30" as="geometry" />
        </mxCell>
        <mxCell id="mkDRwggV2IfQ0x30Mn7R-7" value="&lt;div&gt;Env.&lt;/div&gt;&lt;div&gt;separation&lt;/div&gt;" style="text;html=1;align=center;verticalAlign=middle;resizable=0;points=[];autosize=1;strokeColor=none;fillColor=none;" parent="1" vertex="1">
          <mxGeometry x="420" y="140" width="80" height="40" as="geometry" />
        </mxCell>
        <mxCell id="mkDRwggV2IfQ0x30Mn7R-8" value="DHCP application" style="rounded=1;whiteSpace=wrap;html=1;fillColor=light-dark(#99c1f1, #ededed);strokeColor=light-dark(#1c71d8, #ededed);fontColor=light-dark(#ffffff, #ededed);" parent="1" vertex="1">
          <mxGeometry x="470" y="190" width="90" height="30" as="geometry" />
        </mxCell>
        <mxCell id="mkDRwggV2IfQ0x30Mn7R-18" value="Hardware" style="text;html=1;align=center;verticalAlign=middle;resizable=0;points=[];autosize=1;strokeColor=none;fillColor=none;" parent="1" vertex="1">
          <mxGeometry x="300" y="462.5" width="80" height="30" as="geometry" />
        </mxCell>
        <mxCell id="mkDRwggV2IfQ0x30Mn7R-20" value="" style="rounded=1;whiteSpace=wrap;html=1;fillColor=#f8cecc;strokeColor=#b85450;" parent="1" vertex="1">
          <mxGeometry x="300" y="190" width="150" height="170" as="geometry" />
        </mxCell>
        <mxCell id="mkDRwggV2IfQ0x30Mn7R-21" value="VM1" style="text;html=1;align=center;verticalAlign=middle;resizable=0;points=[];autosize=1;strokeColor=none;fillColor=none;" parent="1" vertex="1">
          <mxGeometry x="490" y="150" width="50" height="30" as="geometry" />
        </mxCell>
        <mxCell id="mkDRwggV2IfQ0x30Mn7R-22" value="VM0" style="text;html=1;align=center;verticalAlign=middle;resizable=0;points=[];autosize=1;strokeColor=none;fillColor=none;" parent="1" vertex="1">
          <mxGeometry x="350" y="150" width="50" height="30" as="geometry" />
        </mxCell>
        <mxCell id="mkDRwggV2IfQ0x30Mn7R-26" value="Example application" style="text;html=1;align=center;verticalAlign=middle;whiteSpace=wrap;rounded=0;fontColor=light-dark(#000000,#EDEDED);" parent="1" vertex="1">
          <mxGeometry x="345" y="260" width="60" height="30" as="geometry" />
        </mxCell>
        <mxCell id="mkDRwggV2IfQ0x30Mn7R-50" value="Zephyr RTOS" style="text;html=1;align=center;verticalAlign=middle;resizable=0;points=[];autosize=1;strokeColor=none;fillColor=none;fontColor=light-dark(#000000,#EDEDED);" parent="1" vertex="1">
          <mxGeometry x="465" y="247.5" width="100" height="30" as="geometry" />
        </mxCell>
        <mxCell id="mkDRwggV2IfQ0x30Mn7R-55" value="" style="endArrow=none;dashed=1;html=1;rounded=0;" parent="1" edge="1">
          <mxGeometry width="50" height="50" relative="1" as="geometry">
            <mxPoint x="570" y="370" as="sourcePoint" />
            <mxPoint x="570" y="180" as="targetPoint" />
          </mxGeometry>
        </mxCell>
        <mxCell id="mkDRwggV2IfQ0x30Mn7R-56" value="&lt;div&gt;Env.&lt;/div&gt;&lt;div&gt;separation&lt;/div&gt;" style="text;html=1;align=center;verticalAlign=middle;resizable=0;points=[];autosize=1;strokeColor=none;fillColor=none;" parent="1" vertex="1">
          <mxGeometry x="530" y="140" width="80" height="40" as="geometry" />
        </mxCell>
        <mxCell id="mkDRwggV2IfQ0x30Mn7R-58" value="CROSSCON Hyp" style="text;html=1;align=center;verticalAlign=middle;resizable=0;points=[];autosize=1;strokeColor=none;fillColor=none;fontColor=light-dark(#ffffff, #ededed);" parent="1" vertex="1">
          <mxGeometry x="190" y="387.5" width="120" height="30" as="geometry" />
        </mxCell>
        <mxCell id="mkDRwggV2IfQ0x30Mn7R-60" value="" style="rounded=1;whiteSpace=wrap;html=1;fillColor=#d5e8d4;strokeColor=#82b366;" parent="1" vertex="1">
          <mxGeometry x="300" y="380" width="420" height="31" as="geometry" />
        </mxCell>
        <mxCell id="mkDRwggV2IfQ0x30Mn7R-62" value="" style="rounded=0;whiteSpace=wrap;html=1;fillColor=#d5e8d4;strokeColor=none;" parent="1" vertex="1">
          <mxGeometry x="580.5" y="379" width="139" height="21" as="geometry" />
        </mxCell>
        <mxCell id="mkDRwggV2IfQ0x30Mn7R-63" value="CROSSCON Hypervisor" style="text;html=1;align=center;verticalAlign=middle;resizable=0;points=[];autosize=1;strokeColor=none;fillColor=none;fontColor=light-dark(#191919,#EDEDED);" parent="1" vertex="1">
          <mxGeometry x="575" y="200" width="150" height="30" as="geometry" />
        </mxCell>
        <mxCell id="mkDRwggV2IfQ0x30Mn7R-64" value="" style="endArrow=none;dashed=1;html=1;rounded=0;" parent="1" edge="1">
          <mxGeometry width="50" height="50" relative="1" as="geometry">
            <mxPoint x="570" y="370" as="sourcePoint" />
            <mxPoint x="300" y="370" as="targetPoint" />
          </mxGeometry>
        </mxCell>
        <mxCell id="mkDRwggV2IfQ0x30Mn7R-65" value="ARM TrustZone" style="text;html=1;align=center;verticalAlign=middle;resizable=0;points=[];autosize=1;strokeColor=none;fillColor=none;" parent="1" vertex="1">
          <mxGeometry x="595" y="160" width="110" height="30" as="geometry" />
        </mxCell>
        <mxCell id="mkDRwggV2IfQ0x30Mn7R-66" value="&lt;div&gt;Env.&lt;/div&gt;&lt;div&gt;separation&lt;/div&gt;" style="text;html=1;align=center;verticalAlign=middle;resizable=0;points=[];autosize=1;strokeColor=none;fillColor=none;" parent="1" vertex="1">
          <mxGeometry x="220" y="350" width="80" height="40" as="geometry" />
        </mxCell>
        <mxCell id="8hytbF6t35E1Ke5NVrlU-1" value="Server" style="rounded=1;whiteSpace=wrap;html=1;fillColor=none;" parent="1" vertex="1">
          <mxGeometry x="750" y="457" width="50" height="30" as="geometry" />
        </mxCell>
        <mxCell id="8hytbF6t35E1Ke5NVrlU-3" value="TCP/IP" style="rounded=1;whiteSpace=wrap;html=1;fillColor=#dae8fc;strokeColor=#6c8ebf;" parent="1" vertex="1">
          <mxGeometry x="487.5" y="277.5" width="55" height="72.5" as="geometry" />
        </mxCell>
      </root>
    </mxGraphModel>
  </diagram>
</mxfile>
